<?xml version="1.0" encoding="UTF-8" standalone="no"?>
<!-- Generator: Adobe Illustrator 21.1.0, SVG Export Plug-In . SVG Version: 6.00 Build 0)  -->

<svg
   xmlns:dc="http://purl.org/dc/elements/1.1/"
   xmlns:cc="http://creativecommons.org/ns#"
   xmlns:rdf="http://www.w3.org/1999/02/22-rdf-syntax-ns#"
   xmlns:svg="http://www.w3.org/2000/svg"
   xmlns="http://www.w3.org/2000/svg"
   xmlns:sodipodi="http://sodipodi.sourceforge.net/DTD/sodipodi-0.dtd"
   xmlns:inkscape="http://www.inkscape.org/namespaces/inkscape"
   version="1.1"
   id="Layer_1"
   x="0px"
   y="0px"
   viewBox="0 0 700 700"
   xml:space="preserve"
   sodipodi:docname="smart-fit-logo.svg"
   width="700"
   height="700"
   inkscape:version="0.92.4 (5da689c313, 2019-01-14)"
   inkscape:export-filename="G:\Users\suitedoalex\sites\smart-fit-logo-0.png"
   inkscape:export-xdpi="561.73712"
   inkscape:export-ydpi="561.73712"><metadata
   id="metadata23"><rdf:RDF><cc:Work
       rdf:about=""><dc:format>image/svg+xml</dc:format><dc:type
         rdf:resource="http://purl.org/dc/dcmitype/StillImage" /><dc:title></dc:title></cc:Work></rdf:RDF></metadata><defs
   id="defs21" /><sodipodi:namedview
   pagecolor="#ffffff"
   bordercolor="#666666"
   borderopacity="1"
   objecttolerance="10"
   gridtolerance="10"
   guidetolerance="10"
   inkscape:pageopacity="0"
   inkscape:pageshadow="2"
   inkscape:window-width="1600"
   inkscape:window-height="837"
   id="namedview19"
   showgrid="false"
   inkscape:zoom="0.2859589"
   inkscape:cx="992.21932"
   inkscape:cy="217.08961"
   inkscape:window-x="-8"
   inkscape:window-y="-8"
   inkscape:window-maximized="1"
   inkscape:current-layer="g18" />
<style
   type="text/css"
   id="style2">
	.st0{fill-rule:evenodd;clip-rule:evenodd;fill:#FCB823;}
	.st1{fill:#FFFFFF;}
</style>
<g
   id="g16"
   transform="translate(0,646)">
	
	
	
	
	
	
<path
   class="st0"
   d="m 1222.1468,-452.49412 v -113.39719 c 0,-38.75083 40.3825,-46.90891 69.3436,-35.89551 v 21.61889 c -19.9872,-8.15807 -42.4219,-6.11855 -42.4219,18.76356 h 32.2243 v 21.61889 h -32.2243 v 86.88346 z"
   id="path4-7"
   inkscape:connector-curvature="0"
   style="clip-rule:evenodd;fill:#fcb823;fill-rule:evenodd;stroke-width:4.07903528"
   inkscape:export-filename="G:\Users\suitedoalex\sites\smart-fit-logo-4.png"
   inkscape:export-xdpi="113.30457"
   inkscape:export-ydpi="113.30457" /><path
   class="st0"
   d="m 1350.6364,-578.12841 h 19.9873 l 4.0791,16.72404 h 24.8821 v 21.61889 h -22.0268 v 50.17214 c 0,10.19759 4.4869,15.09243 13.0529,15.09243 h 13.8687 v 21.61889 h -26.9216 c -17.9478,0 -27.3296,-9.78969 -27.3296,-28.96116 v -96.26523 z"
   id="path6-9"
   inkscape:connector-curvature="0"
   style="clip-rule:evenodd;fill:#fcb823;fill-rule:evenodd;stroke-width:4.07903528"
   inkscape:export-filename="G:\Users\suitedoalex\sites\smart-fit-logo-4.png"
   inkscape:export-xdpi="113.30457"
   inkscape:export-ydpi="113.30457" /><rect
   x="1302.5037"
   y="-561.40436"
   class="st0"
   width="27.329536"
   height="108.50234"
   id="rect8-5"
   style="clip-rule:evenodd;fill:#fcb823;fill-rule:evenodd;stroke-width:4.07903528"
   inkscape:export-filename="G:\Users\suitedoalex\sites\smart-fit-logo-4.png"
   inkscape:export-xdpi="113.30457"
   inkscape:export-ydpi="113.30457" /><rect
   x="1302.5037"
   y="-600.56311"
   class="st0"
   width="27.329536"
   height="22.434694"
   id="rect10-3"
   style="clip-rule:evenodd;fill:#fcb823;fill-rule:evenodd;stroke-width:4.07903528"
   inkscape:export-filename="G:\Users\suitedoalex\sites\smart-fit-logo-4.png"
   inkscape:export-xdpi="113.30457"
   inkscape:export-ydpi="113.30457" /><path
   class="st0"
   d="m 1427.7302,-452.90202 c -24.0663,37.93503 -66.0804,62.81714 -114.213,62.81714 -48.1326,0 -90.1467,-24.88211 -114.213,-62.81714 28.1454,26.10582 68.9357,42.01406 114.213,42.01406 45.2773,0.4079 86.0677,-15.90824 114.213,-42.01406"
   id="path12-1"
   inkscape:connector-curvature="0"
   style="clip-rule:evenodd;fill:#fcb823;fill-rule:evenodd;stroke-width:4.07903528"
   inkscape:export-filename="G:\Users\suitedoalex\sites\smart-fit-logo-4.png"
   inkscape:export-xdpi="113.30457"
   inkscape:export-ydpi="113.30457" /><path
   class="st1"
   d="m 837.90168,-477.78414 v -14.68453 c 7.7502,3.26323 17.1319,4.89484 27.3295,4.89484 7.7502,0 11.4213,-2.44742 11.4213,-7.34226 0,-4.48694 -2.4474,-6.93436 -7.7501,-6.93436 h -12.6451 c -14.2766,0 -21.6188,-7.34226 -21.6188,-21.61889 0,-14.68452 10.6055,-22.02679 31.4085,-22.02679 8.9739,0 17.132,1.22371 25.2901,4.07904 v 14.68453 c -7.7502,-3.26323 -16.3162,-4.89485 -25.698,-4.89485 -9.7897,0 -14.2766,2.44742 -14.2766,7.34227 0,4.48693 2.8553,6.93436 8.566,6.93436 h 11.4213 c 15.5003,0 23.6584,7.34226 23.6584,21.61888 0,14.68453 -10.1976,22.02679 -30.1849,22.02679 -10.1976,0 -18.7635,-1.63161 -26.9216,-4.07903 m 68.9357,3.26323 v -70.56732 h 13.8687 l 2.0395,8.97388 c 8.1581,-6.11855 16.3162,-8.97388 24.0663,-8.97388 8.9739,0 15.0925,3.26323 18.7636,9.78969 8.9739,-6.52646 17.5399,-9.78969 25.29,-9.78969 15.09252,0 22.43472,8.97388 22.43472,26.92164 v 43.64568 h -17.94772 v -44.46149 c 0,-7.75016 -3.2633,-11.8292 -9.7897,-11.8292 -5.3028,0 -11.0134,2.85532 -16.7241,8.97388 v 47.31681 h -17.9477 v -44.46149 c 0,-8.15807 -3.2633,-11.8292 -9.7897,-11.8292 -5.7107,0 -11.4213,2.85532 -16.7241,8.97388 v 47.31681 z M 1026.761,-496.5477 c 0,-14.68453 10.1976,-21.61889 30.5928,-21.61889 6.1186,0 11.8292,0.4079 16.3161,1.22371 v -4.48694 c 0,-6.11855 -6.1185,-9.38178 -18.3556,-9.38178 -7.7502,0 -15.5004,1.22371 -22.8426,3.26323 V -541.825 c 7.7502,-2.03951 15.5003,-3.26323 22.8426,-3.26323 24.0663,0 36.3034,7.75017 36.3034,23.25051 v 47.31681 h -8.9739 l -7.7501,-4.89484 c -6.1186,3.26322 -12.6451,4.89484 -19.5794,4.89484 -19.1715,0 -28.5533,-7.34227 -28.5533,-22.02679 z m 46.9089,-6.93436 c -4.4869,-0.81581 -9.7896,-1.22371 -16.3161,-1.22371 -8.566,0 -13.0529,2.85532 -13.0529,8.15807 0,5.30274 3.6711,8.15807 10.6055,8.15807 7.3422,0 13.4608,-2.03952 18.3556,-5.71065 v -9.38178 z m 35.4877,28.96115 v -70.56732 h 13.8687 l 2.0395,8.97388 c 6.1185,-6.11855 12.645,-8.97388 19.5794,-8.97388 v 14.27663 c -6.5265,0 -12.6451,2.85532 -17.9478,8.97388 v 47.31681 z m 46.501,-81.98862 h 13.0529 l 2.8553,11.4213 h 16.3161 v 14.27663 h -14.2766 v 32.63228 c 0,6.52646 2.8553,9.78969 8.566,9.78969 h 5.7106 v 14.27662 h -14.6845 c -11.8292,0 -17.9477,-6.52646 -17.9477,-19.17147 v -63.22505 z"
   id="path14-4"
   style="fill:#8a8b8f;fill-opacity:1;stroke-width:4.07903528"
   inkscape:connector-curvature="0"
   inkscape:export-filename="G:\Users\suitedoalex\sites\smart-fit-logo-4.png"
   inkscape:export-xdpi="113.30457"
   inkscape:export-ydpi="113.30457" /><path
   class="st0"
   d="m 212.19258,-182.35346 v -171.02932 c 0,-58.44519 60.90614,-70.74951 104.58631,-54.13874 v 32.60632 c -30.14558,-12.3043 -63.98245,-9.22823 -63.98245,28.29978 h 48.60153 v 32.60631 h -48.60153 v 131.04045 z"
   id="path4-7-4"
   inkscape:connector-curvature="0"
   style="clip-rule:evenodd;fill:#fcb823;fill-opacity:1;fill-rule:evenodd;stroke-width:6.15213203"
   inkscape:export-filename="G:\Users\suitedoalex\sites\smart-fit-logo-3.png"
   inkscape:export-xdpi="195.05431"
   inkscape:export-ydpi="195.05431" /><path
   class="st0"
   d="m 405.9846,-371.83915 h 30.14558 l 6.15167,25.22373 h 37.52803 v 32.60631 h -33.22107 v 75.67123 c 0,15.38033 6.76747,22.7629 19.6866,22.7629 h 20.91691 v 32.60632 h -40.60351 c -27.06963,0 -41.21931,-14.76509 -41.21931,-43.6802 v -145.19029 z"
   id="path6-9-1"
   inkscape:connector-curvature="0"
   style="clip-rule:evenodd;fill:#fcb823;fill-opacity:1;fill-rule:evenodd;stroke-width:6.15213203"
   inkscape:export-filename="G:\Users\suitedoalex\sites\smart-fit-logo-3.png"
   inkscape:export-xdpi="195.05431"
   inkscape:export-ydpi="195.05431" /><rect
   x="333.38943"
   y="-346.61533"
   class="st0"
   width="41.21928"
   height="163.64671"
   id="rect8-5-5"
   style="clip-rule:evenodd;fill:#fcb823;fill-opacity:1;fill-rule:evenodd;stroke-width:6.15213203"
   inkscape:export-filename="G:\Users\suitedoalex\sites\smart-fit-logo-3.png"
   inkscape:export-xdpi="195.05431"
   inkscape:export-ydpi="195.05431" /><rect
   x="333.38943"
   y="-405.67569"
   class="st0"
   width="41.21928"
   height="33.836731"
   id="rect10-3-9"
   style="clip-rule:evenodd;fill:#fcb823;fill-opacity:1;fill-rule:evenodd;stroke-width:6.15213203"
   inkscape:export-filename="G:\Users\suitedoalex\sites\smart-fit-logo-3.png"
   inkscape:export-xdpi="195.05431"
   inkscape:export-ydpi="195.05431" /><path
   class="st0"
   d="m 522.25973,-182.96865 c -36.29748,57.21479 -99.66448,94.742815 -172.25989,94.742815 -72.59474,0 -135.96197,-37.528025 -172.25957,-94.742815 42.44985,39.3736 103.97156,63.36688 172.25957,63.36688 68.28915,0.61528 129.81004,-23.99327 172.25989,-63.36688"
   id="path12-1-0"
   inkscape:connector-curvature="0"
   style="clip-rule:evenodd;fill:#fcb823;fill-opacity:1;fill-rule:evenodd;stroke-width:6.15213203"
   inkscape:export-filename="G:\Users\suitedoalex\sites\smart-fit-logo-3.png"
   inkscape:export-xdpi="195.05431"
   inkscape:export-ydpi="195.05431" /><path
   class="st1"
   d="m 213.42032,-441.75085 v -11.56912 c 6.10581,2.57092 13.49759,3.85638 21.53108,3.85638 6.10616,0 8.99808,-1.92818 8.99808,-5.78454 0,-3.53504 -1.92803,-5.46321 -6.10546,-5.46321 h -9.96268 c -11.24702,0 -17.03191,-5.78454 -17.03191,-17.03234 0,-11.56912 8.35544,-17.35371 24.74531,-17.35371 7.06958,0 13.49712,0.96415 19.92419,3.21367 v 11.56919 c -6.10581,-2.57091 -12.85461,-3.85637 -20.24592,-3.85637 -7.71293,0 -11.24784,1.92813 -11.24784,5.78456 0,3.53499 2.24976,5.46312 6.7488,5.46312 h 8.99855 c 12.21161,0 18.63903,5.78457 18.63903,17.03242 0,11.56907 -8.03418,17.35366 -23.78106,17.35366 -8.03395,0 -14.78298,-1.28546 -21.21017,-3.21368 m 54.31057,2.57089 v -55.59603 h 10.92623 l 1.60712,7.07001 c 6.42718,-4.82041 12.85425,-7.07001 18.96041,-7.07001 7.07005,0 11.8907,2.57088 14.78298,7.71276 7.0697,-5.14188 13.81885,-7.71276 19.9243,-7.71276 11.89071,0 17.67526,7.07001 17.67526,21.21008 v 34.38596 h -14.14046 v -35.02871 c 0,-6.1059 -2.57055,-9.31964 -7.71258,-9.31964 -4.17778,0 -8.67682,2.24964 -13.17586,7.07008 v 37.27827 h -14.13976 v -35.02871 c 0,-6.42733 -2.57136,-9.31964 -7.71327,-9.31964 -4.49905,0 -8.99809,2.24964 -13.17552,7.07008 v 37.27827 z m 94.48115,-17.35366 c 0,-11.56912 8.03383,-17.03226 24.10206,-17.03226 4.82065,0 9.32004,0.32128 12.85484,0.96407 v -3.53503 c 0,-4.82048 -4.8203,-7.39143 -14.46125,-7.39143 -6.10593,0 -12.21171,0.96415 -17.99661,2.57094 v -11.24775 c 6.10616,-1.60682 12.21206,-2.57092 17.99661,-2.57092 18.96029,0 28.60136,6.10592 28.60136,18.31781 v 37.27826 h -7.07006 l -6.1058,-3.85638 c -4.82066,2.57097 -9.96268,3.85638 -15.4255,3.85638 -15.10387,0 -22.49565,-5.78457 -22.49565,-17.35369 z m 36.9569,-5.46314 c -3.5348,-0.64277 -7.71258,-0.96414 -12.85484,-0.96414 -6.74809,0 -10.28368,2.24955 -10.28368,6.42729 0,4.17772 2.89272,6.42733 8.35589,6.42733 5.7842,0 10.60531,-1.60683 14.46137,-4.49914 v -7.39134 z m 27.95896,22.81684 v -55.59607 h 10.92611 l 1.60676,7.07001 c 4.82066,-4.82041 9.96268,-7.07001 15.42597,-7.07001 v 11.24773 c -5.14238,0 -9.96268,2.24964 -14.14046,7.07008 v 37.27826 z m 36.63531,-64.59427 h 10.28348 l 2.2501,8.9982 h 12.8539 v 11.24773 h -11.24748 v 25.70923 c 0,5.14178 2.2494,7.71275 6.74844,7.71275 h 4.49904 v 11.24772 h -11.56874 c -9.31981,0 -14.14,-5.14183 -14.14,-15.1041 v -49.81153 z"
   id="path14-4-2"
   style="fill:#8a8b8f;fill-opacity:1;stroke-width:3.21364665"
   inkscape:connector-curvature="0"
   inkscape:export-filename="G:\Users\suitedoalex\sites\smart-fit-logo-3.png"
   inkscape:export-xdpi="195.05431"
   inkscape:export-ydpi="195.05431" /><g
   transform="matrix(6.8095422,0,0,6.8095422,809.22756,-1000.3951)"
   id="g18"
   style="fill:#ff00ff"><path
     inkscape:connector-curvature="0"
     class="st0"
     d="m -56.33676,189.37818 v -14.45859 c 0,-4.91431 5.15799,-5.97027 8.85386,-4.5894 v 2.76176 c -2.51807,-1.01535 -5.36105,-0.81228 -5.36105,2.39623 h 4.10202 v 2.76176 h -4.10202 v 11.08762 z"
     id="path4"
     style="clip-rule:evenodd;fill:#fcb823;fill-opacity:1;fill-rule:evenodd;stroke-width:0.40614048"
     inkscape:export-filename="G:\Users\suitedoalex\sites\smart-fit-logo-6.png"
     inkscape:export-xdpi="130.63579"
     inkscape:export-ydpi="130.63579" /><path
     inkscape:connector-curvature="0"
     class="st0"
     d="m -39.9693,173.33564 h 2.55869 l 0.52798,2.15254 h 3.20851 v 2.76176 h -2.80237 v 6.41701 c 0,1.29965 0.5686,1.90885 1.66518,1.90885 h 1.7464 v 2.76176 h -3.45219 c -2.315,0 -3.4522,-1.21842 -3.4522,-3.69588 z"
     id="path6"
     style="clip-rule:evenodd;fill:#fcb823;fill-opacity:1;fill-rule:evenodd;stroke-width:0.40614048"
     inkscape:export-filename="G:\Users\suitedoalex\sites\smart-fit-logo-6.png"
     inkscape:export-xdpi="130.63579"
     inkscape:export-ydpi="130.63579" /><rect
     x="-46.102016"
     y="175.48819"
     class="st0"
     width="3.4521942"
     height="13.808777"
     id="rect8"
     style="clip-rule:evenodd;fill:#fcb823;fill-opacity:1;fill-rule:evenodd;stroke-width:0.40614048"
     inkscape:export-filename="G:\Users\suitedoalex\sites\smart-fit-logo-6.png"
     inkscape:export-xdpi="130.63579"
     inkscape:export-ydpi="130.63579" /><rect
     x="-46.102016"
     y="170.49266"
     class="st0"
     width="3.4521942"
     height="2.8429835"
     id="rect10"
     style="clip-rule:evenodd;fill:#fcb823;fill-opacity:1;fill-rule:evenodd;stroke-width:0.40614048"
     inkscape:export-filename="G:\Users\suitedoalex\sites\smart-fit-logo-6.png"
     inkscape:export-xdpi="130.63579"
     inkscape:export-ydpi="130.63579" /><path
     inkscape:connector-curvature="0"
     class="st0"
     d="m -30.18131,189.33756 c -3.04605,4.79246 -8.40711,8.00097 -14.53983,8.00097 -6.13272,0 -11.49378,-3.20851 -14.53983,-8.00097 3.57404,3.28974 8.77264,5.36106 14.53983,5.36106 5.76719,0 10.96579,-2.07132 14.53983,-5.36106"
     id="path12"
     style="clip-rule:evenodd;fill:#fcb823;fill-opacity:1;fill-rule:evenodd;stroke-width:0.40614048"
     inkscape:export-filename="G:\Users\suitedoalex\sites\smart-fit-logo-6.png"
     inkscape:export-xdpi="130.63579"
     inkscape:export-ydpi="130.63579" /><path
     inkscape:connector-curvature="0"
     class="st1"
     d="m -105.27668,186.12905 v -1.86824 c 1.01535,0.40614 2.15255,0.60921 3.4522,0.60921 0.97474,0 1.4621,-0.32492 1.4621,-0.93413 0,-0.56859 -0.32491,-0.85289 -0.97473,-0.85289 h -1.62456 c -1.86825,-0.0407 -2.76176,-0.93412 -2.76176,-2.76176 0,-1.86823 1.34026,-2.84297 4.02079,-2.84297 1.13719,0 2.19315,0.16246 3.2085,0.52799 v 1.86824 c -1.01535,-0.40614 -2.07131,-0.60921 -3.24912,-0.60921 -1.21841,0 -1.82762,0.32491 -1.82762,0.93412 0,0.56859 0.36552,0.85289 1.05596,0.85289 h 1.4621 c 1.99008,0 3.00543,0.8935 3.00543,2.76175 0,1.86825 -1.25903,2.84298 -3.8177,2.84298 -1.29966,0 -2.43685,-0.16245 -3.41159,-0.52798 m 8.77263,0.44675 v -9.0163 h 1.7464 l 0.2843,1.1372 c 1.01535,-0.77167 2.07132,-1.1372 3.08667,-1.1372 1.13719,0 1.94947,0.40614 2.39623,1.21842 1.13719,-0.81228 2.23377,-1.21842 3.24912,-1.21842 1.90886,0 2.84299,1.1372 2.84299,3.41157 v 5.56413 h -2.27439 v -5.68597 c 0,-1.01535 -0.40614,-1.50271 -1.25904,-1.50271 -0.69043,0 -1.38087,0.40614 -2.11193,1.1778 v 6.01088 h -2.27438 v -5.60475 c 0,-1.01534 -0.40615,-1.54332 -1.25904,-1.54332 -0.73106,0 -1.42149,0.40614 -2.15255,1.1778 v 6.01087 z m 15.23027,-2.80236 c 0,-1.82764 1.29965,-2.76176 3.89894,-2.76176 0.77168,0 1.46211,0.0407 2.11194,0.16246 v -0.60921 c 0,-0.81227 -0.77167,-1.21841 -2.35562,-1.21841 -0.97474,0 -1.94948,0.16246 -2.92421,0.44675 v -1.78701 c 0.97473,-0.28431 1.94947,-0.44676 2.92421,-0.44676 3.08667,0 4.63,0.97474 4.63,2.96482 v 6.05148 h -1.13719 l -0.97474,-0.64982 c -0.77167,0.40614 -1.62456,0.64982 -2.51807,0.64982 -2.43684,0 -3.65526,-0.93412 -3.65526,-2.80236 z m 6.01088,-0.89351 c -0.5686,-0.12184 -1.25904,-0.16246 -2.11194,-0.16246 -1.09658,0 -1.62456,0.32491 -1.62456,1.01536 0,0.69044 0.44676,1.01535 1.38088,1.01535 0.93413,0 1.70579,-0.24369 2.35562,-0.69045 z m 4.46754,3.69587 v -9.0163 h 1.7464 l 0.28431,1.1372 c 0.77166,-0.77167 1.62456,-1.1372 2.51806,-1.1372 v 1.82763 c -0.85289,0 -1.62456,0.36553 -2.27438,1.13719 v 6.01088 h -2.27439 z m 5.97026,-10.47841 h 1.66518 l 0.36553,1.46211 h 2.07131 v 1.78702 h -1.82763 v 4.14262 c 0,0.8529 0.36553,1.25904 1.09658,1.25904 h 0.77167 v 1.78702 h -1.86825 c -1.50272,0 -2.27439,-0.81229 -2.27439,-2.43685 z"
     id="path14"
     style="fill:#8a8b8f;fill-opacity:1;stroke-width:0.40614048"
     inkscape:export-filename="G:\Users\suitedoalex\sites\smart-fit-logo-6.png"
     inkscape:export-xdpi="130.63579"
     inkscape:export-ydpi="130.63579" /><path
     inkscape:connector-curvature="0"
     class="st1"
     d="m -68.96773,193.60204 v 0.40614 h 0.44676 v -0.40614 z m -1.4621,-0.64983 h 0.77166 c 0,-0.24368 -0.12184,-0.40614 -0.36552,-0.40614 -0.24368,0.0407 -0.36553,0.16246 -0.40614,0.40614 z m 0.44675,-0.73105 c 0.60921,0 0.85289,0.36553 0.73106,1.09658 h -1.17781 c 0,0.24368 0.20307,0.36553 0.60921,0.36553 0.20307,0 0.36552,0 0.5686,-0.0407 v 0.36553 c -0.16246,0.0406 -0.36553,0.0406 -0.60921,0.0406 -0.64983,0 -0.97474,-0.32491 -0.97474,-0.93412 -0.0406,-0.60921 0.28429,-0.89351 0.85289,-0.89351 z m -1.90886,-0.2843 h 0.32491 l 0.0812,0.2843 h 0.40614 v 0.36553 h -0.36552 v 0.85289 c 0,0.16246 0.0812,0.24369 0.20306,0.24369 h 0.16246 v 0.36552 h -0.36552 c -0.2843,0 -0.44675,-0.16245 -0.44675,-0.48737 z m -2.11193,2.07132 v -1.82763 h 0.36553 l 0.0406,0.24368 c 0.20307,-0.16245 0.44675,-0.24368 0.64982,-0.24368 0.40614,0 0.60922,0.24368 0.60922,0.69043 v 1.1372 h -0.44677 v -1.1372 c 0,-0.20306 -0.0812,-0.28429 -0.28429,-0.28429 -0.16246,0 -0.32491,0.0812 -0.48737,0.24368 v 1.21842 h -0.44675 z m -1.50272,-1.05597 h 0.77167 c 0,-0.24368 -0.12185,-0.40614 -0.36553,-0.40614 -0.24368,0.0407 -0.36553,0.16246 -0.40614,0.40614 z m 0.44676,-0.73105 c 0.60921,0 0.85289,0.36553 0.73105,1.09658 h -1.17781 c 0,0.24368 0.20307,0.36553 0.60921,0.36553 0.16246,0 0.36553,0 0.5686,-0.0407 v 0.36553 c -0.16245,0.0406 -0.36553,0.0406 -0.60922,0.0406 -0.64981,0 -0.97473,-0.32491 -0.97473,-0.93412 -0.0406,-0.60921 0.24369,-0.89351 0.8529,-0.89351 z m -1.17781,0.0812 c -0.2843,-0.0407 -0.5686,-0.0812 -0.77167,-0.0812 -0.64982,0 -0.97474,0.2843 -0.97474,0.89351 0,0.5686 0.28431,0.89351 0.8529,0.89351 0.16245,0 0.2843,-0.0407 0.44676,-0.0812 0,0.2843 -0.16246,0.40614 -0.52799,0.40614 -0.20307,0 -0.40614,-0.0406 -0.60921,-0.0812 v 0.36553 c 0.16246,0.0406 0.36553,0.0812 0.60921,0.0812 0.64983,0 0.97474,-0.20308 0.97474,-0.64983 z m -0.44675,1.21842 c -0.12185,0.0812 -0.28431,0.0812 -0.44676,0.0812 -0.2843,0 -0.40614,-0.16246 -0.40614,-0.48737 0,-0.36553 0.16245,-0.52798 0.48736,-0.52798 0.16246,0 0.28431,0 0.36554,0.0406 z m -1.62457,-1.29965 v 1.82763 h -0.44675 v -1.82763 z m 0,-0.64982 v 0.36552 h -0.44675 v -0.36552 z m -1.29965,0 v 2.47745 h 0.44676 v -2.47745 z m -1.50272,1.38087 h 0.77167 c 0,-0.24368 -0.12184,-0.40614 -0.36553,-0.40614 -0.24368,0.0407 -0.40614,0.16246 -0.40614,0.40614 z m 0.44675,-0.73105 c 0.60922,0 0.8529,0.36553 0.73106,1.09658 h -1.17781 c 0,0.24368 0.20307,0.36553 0.60921,0.36553 0.16246,0 0.36553,0 0.5686,-0.0407 v 0.36553 c -0.16246,0.0406 -0.36552,0.0406 -0.60921,0.0406 -0.64983,0 -0.97474,-0.32491 -0.97474,-0.93412 -0.0406,-0.60921 0.24369,-0.89351 0.85289,-0.89351 z m -1.94947,-0.2843 h 0.32491 l 0.0812,0.2843 h 0.40615 v 0.36553 h -0.36553 v 0.85289 c 0,0.16246 0.0812,0.24369 0.20307,0.24369 h 0.20306 v 0.36552 h -0.40613 c -0.2843,0 -0.44676,-0.16245 -0.44676,-0.48737 z m -2.07131,2.07132 v -1.82763 h 0.36552 l 0.0406,0.24368 c 0.20307,-0.16245 0.44675,-0.24368 0.64983,-0.24368 0.40614,0 0.60921,0.24368 0.60921,0.69043 v 1.1372 h -0.44675 v -1.1372 c 0,-0.20306 -0.0812,-0.28429 -0.28431,-0.28429 -0.16245,0 -0.32491,0.0812 -0.48736,0.24368 v 1.21842 h -0.44676 z m -0.40614,-1.78702 v 1.82763 h -0.44676 v -1.82763 z m 0,-0.64982 v 0.36552 h -0.44676 v -0.36552 z m -2.23378,1.70579 c -0.12184,-0.0407 -0.24368,-0.0407 -0.40614,-0.0407 -0.20307,0 -0.32491,0.0812 -0.32491,0.20307 0,0.12184 0.0812,0.20307 0.2843,0.20307 0.20307,0 0.32491,-0.0406 0.48737,-0.12184 v -0.24368 z m -1.21842,0.20306 c 0,-0.36552 0.24369,-0.56859 0.77167,-0.56859 0.16246,0 0.28429,0 0.40614,0.0406 v -0.12184 c 0,-0.16246 -0.16246,-0.24368 -0.48737,-0.24368 -0.20307,0 -0.40614,0.0406 -0.60921,0.0812 v -0.36556 c 0.20307,-0.0407 0.40614,-0.0812 0.60921,-0.0812 0.60921,0 0.93412,0.20307 0.93412,0.60921 v 1.21842 h -0.24368 l -0.20307,-0.12184 c -0.16246,0.0812 -0.32491,0.12184 -0.48737,0.12184 -0.44675,-0.0406 -0.69044,-0.20307 -0.69044,-0.5686 z m -0.2843,-1.25903 v 1.82763 h -0.44675 v -1.82763 z m 0,-0.64982 v 0.36552 h -0.44675 v -0.36552 z m -3.61465,2.43684 v -1.82763 h 0.36553 l 0.0406,0.24368 c 0.20308,-0.16245 0.40614,-0.24368 0.60921,-0.24368 0.24368,0 0.40614,0.0812 0.48737,0.24368 0.24368,-0.16245 0.44676,-0.24368 0.64983,-0.24368 0.36552,0 0.5686,0.24368 0.5686,0.69043 v 1.1372 h -0.44677 v -1.1372 c 0,-0.20306 -0.0812,-0.28429 -0.24368,-0.28429 -0.12184,0 -0.2843,0.0812 -0.44675,0.24368 v 1.21842 h -0.44675 v -1.13719 c 0,-0.20307 -0.0812,-0.32491 -0.24369,-0.32491 -0.16246,0 -0.28429,0.0812 -0.44675,0.24368 v 1.21842 h -0.44676 z m -1.50271,-1.05597 h 0.77166 c 0,-0.24368 -0.12185,-0.40614 -0.36552,-0.40614 -0.24369,0.0407 -0.36553,0.16246 -0.40614,0.40614 z m 0.44675,-0.73105 c 0.60921,0 0.85289,0.36553 0.73105,1.09658 h -1.1778 c 0,0.24368 0.20306,0.36553 0.6092,0.36553 0.16246,0 0.36553,0 0.5686,-0.0407 v 0.36553 c -0.16245,0.0406 -0.36553,0.0406 -0.60921,0.0406 -0.64982,0 -0.97474,-0.32491 -0.97474,-0.93412 -0.0406,-0.60921 0.24369,-0.89351 0.8529,-0.89351 z m -1.17781,1.70579 c -0.28429,0.0812 -0.5686,0.12184 -0.85289,0.12184 -0.60921,0 -0.93413,-0.32491 -0.93413,-0.93412 0,-0.5686 0.2843,-0.85289 0.89351,-0.85289 0.16246,0 0.2843,0.0406 0.44676,0.0812 v -0.73105 h 0.44675 z m -0.44675,-1.21842 c -0.12185,-0.0812 -0.24369,-0.0812 -0.40614,-0.0812 -0.2843,0 -0.44676,0.16246 -0.44676,0.48737 0,0.36552 0.16246,0.5686 0.44676,0.5686 0.16245,0 0.32491,-0.0407 0.40614,-0.0812 z m -2.07132,0.5686 c -0.12184,-0.0407 -0.24369,-0.0407 -0.40614,-0.0407 -0.20307,0 -0.32491,0.0812 -0.32491,0.20307 0,0.12184 0.0812,0.20307 0.2843,0.20307 0.20306,0 0.32491,-0.0406 0.48737,-0.12184 v -0.24368 z m -1.21842,0.20306 c 0,-0.36552 0.24369,-0.56859 0.77167,-0.56859 0.16245,0 0.28429,0 0.40614,0.0406 v -0.12184 c 0,-0.16246 -0.16246,-0.24368 -0.48737,-0.24368 -0.20307,0 -0.40614,0.0406 -0.60921,0.0812 v -0.36556 c 0.20307,-0.0407 0.40614,-0.0812 0.60921,-0.0812 0.60921,0 0.93412,0.20307 0.93412,0.60921 v 1.21842 h -0.24369 l -0.16245,-0.16245 c -0.16246,0.0812 -0.32492,0.12184 -0.48737,0.12184 -0.48736,0 -0.73105,-0.16246 -0.73105,-0.52799 z m -0.20308,0.12185 c -0.16245,0.0406 -0.3249,0.0406 -0.48736,0.0406 -0.36553,0 -0.5686,-0.20307 -0.5686,-0.5686 0,-0.32491 0.20307,-0.52798 0.5686,-0.52798 0.16246,0 0.32491,0 0.48736,0.0406 v -0.36552 c -0.16245,-0.0406 -0.3249,-0.0406 -0.48736,-0.0406 -0.64982,0 -1.01535,0.28429 -1.01535,0.85289 0,0.60921 0.32491,0.93412 1.01535,0.93412 0.20307,0 0.36553,0 0.48736,-0.0406 z m -2.23375,-0.32491 c -0.12185,-0.0407 -0.24369,-0.0407 -0.40614,-0.0407 -0.20307,0 -0.32492,0.0812 -0.32492,0.20307 0,0.12184 0.0812,0.20307 0.2843,0.20307 0.20307,0 0.36553,-0.0406 0.48737,-0.12184 v -0.24368 z m -1.21843,0.20306 c 0,-0.40614 0.28431,-0.56859 0.81229,-0.56859 0.16245,0 0.28429,0 0.40614,0.0406 v -0.12184 c 0,-0.16246 -0.16246,-0.24368 -0.48737,-0.24368 -0.20307,0 -0.40615,0.0406 -0.60921,0.0812 v -0.36556 c 0.20306,-0.0407 0.40614,-0.0812 0.60921,-0.0812 0.60921,0 0.93411,0.20307 0.93411,0.60921 v 1.21842 h -0.24368 l -0.20306,-0.12184 c -0.16246,0.0812 -0.32492,0.12184 -0.48737,0.12184 -0.48737,-0.0406 -0.73106,-0.20307 -0.73106,-0.5686 z m -3.65526,0.52799 1.05597,-2.47746 h 0.48736 l 1.05597,2.47746 h -0.48737 l -0.32491,-0.69044 h -0.77167 l 0.16246,-0.40614 h 0.52798 l -0.40614,-0.93413 -0.81228,1.99009 h -0.48737 z"
     id="path16"
     style="fill:#8a8b8f;fill-opacity:1;stroke-width:0.40614048"
     inkscape:export-filename="G:\Users\suitedoalex\sites\smart-fit-logo-6.png"
     inkscape:export-xdpi="130.63579"
     inkscape:export-ydpi="130.63579" /><path
     inkscape:connector-curvature="0"
     class="st1"
     d="m 68.513259,180.82379 v 0.50929 h 0.56024 v -0.50929 z m -1.83337,-0.81482 h 0.96763 c 0,-0.3057 -0.15268,-0.50927 -0.45838,-0.50927 -0.30569,0.0508 -0.45834,0.2038 -0.50925,0.50927 z m 0.5602,-0.91669 c 0.7639,0 1.06943,0.45834 0.91669,1.37506 h -1.47689 c 0,0.3057 0.25491,0.45831 0.76393,0.45831 0.25458,0 0.45834,0 0.71296,-0.0508 v 0.45834 c -0.2038,0.0508 -0.45834,0.0508 -0.76391,0.0508 -0.81482,0 -1.22221,-0.40739 -1.22221,-1.17133 -0.0508,-0.76387 0.35641,-1.12038 1.06943,-1.12038 z m -2.39358,-0.35654 h 0.40743 l 0.1019,0.35654 h 0.50926 v 0.45834 h -0.45835 v 1.0695 c 0,0.2038 0.1019,0.3057 0.25458,0.3057 h 0.2038 v 0.45834 h -0.45835 c -0.35647,0 -0.5602,-0.2038 -0.5602,-0.61108 z m -2.64826,2.59734 v -2.29172 h 0.45834 l 0.0508,0.3057 c 0.25492,-0.2038 0.56018,-0.3057 0.81486,-0.3057 0.50922,0 0.7639,0.3057 0.7639,0.86577 v 1.42595 h -0.56024 v -1.42595 c 0,-0.25491 -0.1019,-0.35651 -0.35651,-0.35651 -0.2038,0 -0.40739,0.1019 -0.61109,0.3057 v 1.52781 h -0.56018 z m -1.884247,-1.32411 h 0.967597 c 0,-0.3057 -0.15268,-0.50927 -0.45834,-0.50927 -0.3057,0.0508 -0.458377,0.2038 -0.509257,0.50927 z m 0.560137,-0.91669 c 0.76397,0 1.0695,0.45834 0.91672,1.37506 h -1.476857 c 0,0.3057 0.254907,0.45831 0.763867,0.45831 0.2038,0 0.45834,0 0.71299,-0.0508 v 0.45834 c -0.2038,0.0508 -0.45834,0.0508 -0.76391,0.0508 -0.814847,0 -1.222277,-0.40739 -1.222277,-1.17133 -0.0508,-0.76387 0.3057,-1.12038 1.069467,-1.12038 z m -1.476857,0.1019 c -0.35648,-0.0508 -0.71299,-0.1019 -0.9676,-0.1019 -0.81486,0 -1.22229,0.35651 -1.22229,1.12038 0,0.71299 0.35651,1.12042 1.06947,1.12042 0.2038,0 0.35651,-0.0508 0.56021,-0.1019 0,0.35648 -0.2038,0.50926 -0.66204,0.50926 -0.25458,0 -0.50926,-0.0508 -0.7639,-0.1019 v 0.45838 c 0.20379,0.0508 0.45834,0.10189 0.7639,0.10189 0.81486,0 1.22225,-0.25457 1.22225,-0.81485 z m -0.56021,1.52781 c -0.15268,0.1019 -0.35651,0.1019 -0.56021,0.1019 -0.35644,0 -0.50926,-0.2038 -0.50926,-0.61112 0,-0.45835 0.2038,-0.66205 0.61116,-0.66205 0.2038,0 0.35651,0 0.45831,0.0508 z m -2.0371,-1.62968 v 2.29172 h -0.56021 v -2.29172 z m 0,-0.81488 v 0.45837 h -0.56021 v -0.45837 z m -1.62965,0 v 3.1066 h 0.56018 v -3.1066 z m -1.88435,1.73157 h 0.9676 c 0,-0.3057 -0.15268,-0.5093 -0.45834,-0.5093 -0.30569,0.0511 -0.50926,0.20414 -0.50926,0.5093 z m 0.56025,-0.91669 c 0.76386,0 1.06943,0.45835 0.91665,1.375 h -1.4769 c 0,0.3057 0.25492,0.45838 0.76397,0.45838 0.2038,0 0.45832,0 0.71293,-0.0511 v 0.45837 c -0.2038,0.0508 -0.45831,0.0508 -0.76391,0.0508 -0.81482,0 -1.22225,-0.4074 -1.22225,-1.17134 -0.0508,-0.76387 0.3057,-1.12038 1.06951,-1.12038 z m -2.44454,-0.35651 h 0.40743 l 0.1019,0.35651 h 0.50922 v 0.45835 h -0.45834 v 1.06946 c 0,0.20414 0.1019,0.3057 0.25458,0.3057 h 0.25491 v 0.45834 h -0.50925 c -0.35648,0 -0.56021,-0.2038 -0.56021,-0.61108 z m -2.59731,2.59732 v -2.29172 h 0.45834 l 0.0508,0.30569 c 0.25457,-0.20379 0.56024,-0.30569 0.81485,-0.30569 0.50926,0 0.76391,0.30569 0.76391,0.86577 v 1.42595 h -0.56018 v -1.42595 c 0,-0.25458 -0.1019,-0.35651 -0.35651,-0.35651 -0.2038,0 -0.4074,0.1019 -0.61109,0.30569 v 1.52781 h -0.56021 z m -0.50925,-2.24081 v 2.29172 h -0.56021 v -2.29172 z m 0,-0.81488 v 0.45837 h -0.56021 v -0.45837 z m -2.80101,2.13899 c -0.15268,-0.0508 -0.3057,-0.0508 -0.50926,-0.0508 -0.25491,0 -0.40746,0.1019 -0.40746,0.25458 0,0.15268 0.1019,0.25458 0.35654,0.25458 0.25458,0 0.4074,-0.0508 0.61113,-0.15268 v -0.3057 z m -1.52788,0.25459 c 0,-0.45835 0.3057,-0.71296 0.9677,-0.71296 0.2038,0 0.35648,0 0.50926,0.0508 v -0.15268 c 0,-0.2038 -0.2038,-0.3057 -0.61112,-0.3057 -0.25492,0 -0.50933,0.0508 -0.76397,0.1019 v -0.45834 c 0.25491,-0.0508 0.50929,-0.1019 0.76397,-0.1019 0.7639,0 1.1713,0.25458 1.1713,0.76394 v 1.52777 h -0.3057 l -0.25491,-0.15267 c -0.2038,0.10189 -0.40747,0.15267 -0.61119,0.15267 -0.56018,-0.0508 -0.86574,-0.25457 -0.86574,-0.71295 z m -0.35644,-1.57873 v 2.29171 h -0.56021 v -2.29171 z m 0,-0.81489 v 0.45838 h -0.56021 v -0.45838 z m -4.53252,3.05569 v -2.29172 h 0.45835 l 0.0508,0.3057 c 0.25491,-0.2038 0.50926,-0.3057 0.7639,-0.3057 0.3057,0 0.50933,0.1019 0.61116,0.3057 0.3057,-0.2038 0.56018,-0.3057 0.81482,-0.3057 0.45835,0 0.71299,0.3057 0.71299,0.86577 v 1.42595 h -0.56021 v -1.42595 c 0,-0.25457 -0.10189,-0.35651 -0.30569,-0.35651 -0.15268,0 -0.35651,0.1019 -0.56025,0.3057 v 1.52781 h -0.56014 v -1.42595 c 0,-0.25457 -0.1019,-0.40742 -0.30569,-0.40742 -0.2038,0 -0.35651,0.1019 -0.56021,0.30569 v 1.52781 h -0.56017 z m -1.88435,-1.32411 h 0.9676 c 0,-0.3057 -0.15268,-0.50927 -0.45834,-0.50927 -0.3057,0.0508 -0.45834,0.2038 -0.50926,0.50927 z m 0.56021,-0.91669 c 0.76394,0 1.06949,0.45834 0.91672,1.37503 h -1.47693 c 0,0.3057 0.25491,0.45834 0.7639,0.45834 0.2038,0 0.45838,0 0.71303,-0.0508 v 0.45834 c -0.2038,0.0508 -0.45838,0.0508 -0.76398,0.0508 -0.81482,0 -1.22221,-0.40739 -1.22221,-1.17133 -0.0508,-0.76387 0.30569,-1.12038 1.06947,-1.12038 z m -1.47693,2.13897 c -0.35648,0.1019 -0.71296,0.15268 -1.06947,0.15268 -0.76387,0 -1.1713,-0.40736 -1.1713,-1.17133 0,-0.71296 0.35651,-1.06947 1.12038,-1.06947 0.2038,0 0.35652,0.0508 0.56025,0.1019 v -0.91669 h 0.56014 z m -0.56014,-1.52785 c -0.15268,-0.1019 -0.3057,-0.1019 -0.50933,-0.1019 -0.35645,0 -0.56014,0.2038 -0.56014,0.61113 0,0.45834 0.2038,0.71299 0.56014,0.71299 0.2038,0 0.40746,-0.0508 0.50933,-0.1019 z m -2.59731,0.71299 c -0.15268,-0.0508 -0.3057,-0.0508 -0.50926,-0.0508 -0.25491,0 -0.40743,0.1019 -0.40743,0.25458 0,0.15268 0.1019,0.25457 0.35648,0.25457 0.25458,0 0.40743,-0.0508 0.61116,-0.15267 v -0.3057 z m -1.52788,0.25458 c 0,-0.45834 0.30569,-0.71296 0.96767,-0.71296 0.2038,0 0.35647,0 0.50929,0.0508 v -0.15267 c 0,-0.2038 -0.2038,-0.3057 -0.61112,-0.3057 -0.25492,0 -0.50929,0.0508 -0.76397,0.1019 V 179.194 c 0.25491,-0.0508 0.50932,-0.1019 0.76397,-0.1019 0.76387,0 1.1713,0.25457 1.1713,0.76394 v 1.52777 h -0.3057 l -0.2038,-0.2038 c -0.20379,0.1019 -0.40739,0.15268 -0.61112,0.15268 -0.61116,0 -0.91672,-0.2038 -0.91672,-0.66204 z m -0.25458,0.15268 c -0.2038,0.0508 -0.40743,0.0508 -0.61112,0.0508 -0.45835,0 -0.71299,-0.25458 -0.71299,-0.71299 0,-0.40739 0.25491,-0.662 0.71299,-0.662 0.2038,0 0.40743,0 0.61112,0.0508 v -0.45834 c -0.2038,-0.0508 -0.40743,-0.0508 -0.61112,-0.0508 -0.81482,0 -1.27317,0.35649 -1.27317,1.06951 0,0.76387 0.4074,1.1713 1.27317,1.1713 0.25457,0 0.45834,0 0.61112,-0.0508 z m -2.80101,-0.40742 c -0.15268,-0.0508 -0.30569,-0.0508 -0.50926,-0.0508 -0.25457,0 -0.40742,0.1019 -0.40742,0.25457 0,0.15269 0.1019,0.25459 0.35651,0.25459 0.25458,0 0.45834,-0.0508 0.61112,-0.15269 v -0.30569 z m -1.52777,0.25457 c 0,-0.50926 0.35644,-0.71298 1.01851,-0.71298 0.2038,0 0.35651,0 0.50926,0.0508 v -0.15268 c 0,-0.2038 -0.20379,-0.3057 -0.61109,-0.3057 -0.25458,0 -0.50929,0.0508 -0.76393,0.1019 v -0.45834 c 0.25457,-0.0508 0.50929,-0.1019 0.76393,-0.1019 0.76387,0 1.17134,0.25458 1.17134,0.76391 v 1.5278 h -0.3057 l -0.25458,-0.15268 c -0.2038,0.1019 -0.40736,0.15268 -0.61109,0.15268 -0.61112,-0.0508 -0.91672,-0.25457 -0.91672,-0.71298 z m -4.5835,0.66208 1.32412,-3.10661 h 0.61112 l 1.32415,3.10661 h -0.61117 l -0.40742,-0.86577 h -0.9676 l 0.2038,-0.50929 h 0.66207 l -0.50926,-1.1713 -1.01855,2.49541 h -0.61112 z"
     id="path16-2"
     style="fill:#8a8b8f;fill-opacity:1;stroke-width:0.50927401"
     inkscape:export-filename="G:\Users\suitedoalex\sites\smart-fit-logo-5.png"
     inkscape:export-xdpi="210.97433"
     inkscape:export-ydpi="210.97433" /></g><path
   class="st0"
   d="M 992.83854,93.110676 V -64.624517 c 0,-53.902263 56.17206,-65.250133 96.45676,-49.930503 v 30.071773 c -27.8022,-11.34784 -59.0092,-8.51088 -59.0092,26.100091 h 44.8241 v 30.071789 h -44.8241 V 92.543266 Z"
   id="path4-7-4-0"
   inkscape:connector-curvature="0"
   style="clip-rule:evenodd;fill:#fcb823;fill-opacity:1;fill-rule:evenodd;stroke-width:5.67392635"
   inkscape:export-filename="G:\Users\suitedoalex\sites\smart-fit-logo-5.png"
   inkscape:export-xdpi="210.97433"
   inkscape:export-ydpi="210.97433" /><path
   class="st0"
   d="m 1171.567,-81.646257 h 27.8026 l 5.6737,23.263101 h 34.6106 v 30.071789 h -30.6389 v 69.78933 c 0,14.184793 6.2414,20.993513 18.1565,20.993513 h 19.2912 v 30.07179 h -37.4477 c -24.9652,0 -38.015,-13.61734 -38.015,-40.28484 V -81.646257 Z"
   id="path6-9-1-6"
   inkscape:connector-curvature="0"
   style="clip-rule:evenodd;fill:#fcb823;fill-opacity:1;fill-rule:evenodd;stroke-width:5.67392635"
   inkscape:export-filename="G:\Users\suitedoalex\sites\smart-fit-logo-5.png"
   inkscape:export-xdpi="210.97433"
   inkscape:export-ydpi="210.97433" /><rect
   x="1104.6139"
   y="-58.383099"
   class="st0"
   width="38.015305"
   height="150.92645"
   id="rect8-5-5-4"
   style="clip-rule:evenodd;fill:#fcb823;fill-opacity:1;fill-rule:evenodd;stroke-width:5.67392635"
   inkscape:export-filename="G:\Users\suitedoalex\sites\smart-fit-logo-5.png"
   inkscape:export-xdpi="210.97433"
   inkscape:export-ydpi="210.97433" /><rect
   x="1104.6139"
   y="-112.85271"
   class="st0"
   width="38.015305"
   height="31.2066"
   id="rect10-3-9-4"
   style="clip-rule:evenodd;fill:#fcb823;fill-opacity:1;fill-rule:evenodd;stroke-width:5.67392635"
   inkscape:export-filename="G:\Users\suitedoalex\sites\smart-fit-logo-5.png"
   inkscape:export-xdpi="210.97433"
   inkscape:export-ydpi="210.97433" /><path
   class="st0"
   d="m 1278.8039,92.543266 c -33.4756,52.767524 -91.9171,87.378484 -158.8697,87.378484 -66.9519,0 -125.39366,-34.61096 -158.86996,-87.378484 39.15026,36.313154 95.88986,58.441444 158.86996,58.441444 62.9809,0.56744 119.7197,-22.12829 158.8697,-58.441444"
   id="path12-1-0-3"
   inkscape:connector-curvature="0"
   style="clip-rule:evenodd;fill:#fcb823;fill-opacity:1;fill-rule:evenodd;stroke-width:5.67392635"
   inkscape:export-filename="G:\Users\suitedoalex\sites\smart-fit-logo-5.png"
   inkscape:export-xdpi="210.97433"
   inkscape:export-ydpi="210.97433" /><path
   class="st1"
   d="m 993.97114,-146.12374 v -10.66984 c 5.6307,2.37108 12.44816,3.55664 19.85716,3.55664 5.6313,0 8.2989,-1.77829 8.2989,-5.33486 0,-3.26033 -1.7784,-5.03861 -5.6307,-5.03861 h -9.1888 c -10.37236,0 -15.70806,-5.33496 -15.70806,-15.7084 0,-10.66988 7.7062,-16.00481 22.82186,-16.00481 6.5202,0 12.4478,0.88918 18.3755,2.96385 v 10.66991 c -5.6311,-2.37108 -11.8553,-3.55663 -18.6721,-3.55663 -7.1138,0 -10.3735,1.77828 -10.3735,5.33492 0,3.26022 2.075,5.03851 6.2242,5.03851 h 8.2989 c 11.2627,0 17.1903,5.33496 17.1903,15.70846 0,10.66984 -7.41,16.00477 -21.9321,16.00477 -7.4097,0 -13.63426,-1.18556 -19.56156,-2.96388 m 50.08846,2.37105 v -51.27454 h 10.0773 l 1.482,6.52045 c 5.9276,-4.44575 11.8553,-6.52045 17.487,-6.52045 6.5201,0 10.9663,2.37105 13.6339,7.11328 6.5198,-4.74223 12.7444,-7.11328 18.375,-7.11328 10.9668,0 16.3015,6.52045 16.3015,19.56141 v 31.71313 h -13.041 v -32.30589 c 0,-5.63131 -2.3713,-8.59522 -7.1131,-8.59522 -3.8533,0 -8.0026,2.07477 -12.1519,6.52052 v 34.38059 h -13.0406 v -32.30589 c 0,-5.92776 -2.3717,-8.59522 -7.1135,-8.59522 -4.1503,0 -8.2989,2.07477 -12.1519,6.52052 v 34.38059 z m 87.1376,-16.00473 c 0,-10.66985 7.4094,-15.70836 22.2284,-15.70836 4.446,0 8.5956,0.29628 11.8556,0.88911 v -3.2602 c 0,-4.44581 -4.4455,-6.81689 -13.3369,-6.81689 -5.6314,0 -11.2627,0.88918 -16.5981,2.37108 v -10.37347 c 5.6317,-1.4819 11.2626,-2.37108 16.5981,-2.37108 17.4862,0 26.3783,5.63137 26.3783,16.89398 v 34.38059 h -6.5205 l -5.6313,-3.55657 c -4.4463,2.37111 -9.1888,3.55657 -14.2265,3.55657 -13.9299,0 -20.7471,-5.33491 -20.7471,-16.00476 z m 34.084,-5.03848 c -3.26,-0.59286 -7.113,-0.88924 -11.8556,-0.88924 -6.2235,0 -9.4846,2.07473 -9.4846,5.92772 0,3.85295 2.6678,5.92772 7.7066,5.92772 5.3344,0 9.781,-1.4819 13.3374,-4.1494 v -6.8168 z m 25.7858,21.04324 v -51.27457 h 10.0769 l 1.4814,6.52045 c 4.4462,-4.44575 9.1884,-6.52045 14.2272,-6.52045 v 10.37347 c -4.7426,0 -9.1884,2.07476 -13.0414,6.52051 v 34.38059 z m 33.7874,-59.57334 h 9.4843 l 2.075,8.29877 h 11.8545 v 10.37347 h -10.3728 v 23.71081 c 0,4.74213 2.0747,7.11325 6.2239,7.11325 h 4.1489 v 10.37342 h -10.6688 c -8.5954,0 -13.0409,-4.74216 -13.0409,-13.93003 v -45.93969 z"
   id="path14-4-2-9"
   style="fill:#8a8b8f;fill-opacity:1;stroke-width:2.96384978"
   inkscape:connector-curvature="0"
   inkscape:export-filename="G:\Users\suitedoalex\sites\smart-fit-logo-5.png"
   inkscape:export-xdpi="210.97433"
   inkscape:export-ydpi="210.97433" /></g>
</svg>